<?xml version="1.0" encoding="utf-8"?>
<svg viewBox="-223.1 -13.63 891.418 525.933" xmlns="http://www.w3.org/2000/svg">
  <defs>
    <clipPath id="clippath0" transform="">
      <path d="M 0 791.863 L 1154.941 791.863 L 1154.941 0 L 0 0 Z" style="fill: none; clip-rule: nonzero;"/>
    </clipPath>
  </defs>
  <g transform="matrix(1, 0, 0, -1, -354.137177, 641.931519)">
    <g transform="translate(840.1556 279.9824)">
      <path d="M 0 0 L 174.794 0 L 174.794 -139.991 L -0.038 -139.991 L -43.536 -99.027 L -43.536 -41.264 Z" style="fill: rgb(255, 242, 0); fill-opacity: 1;"/>
    </g>
    <g transform="">
      <path d="M 0 791.863 L 1154.941 791.863 L 1154.941 0 L 0 0 Z" style="fill: none;"/>
    </g>
    <g style="clip-path: url(#clippath0);">
      <g transform="translate(260.6429 481.5195)">
        <path d="M 0 0 C -4.115 -3.879 -9.286 -5.818 -15.516 -5.818 L -49.173 -5.818 L -49.173 33.854 L -15.516 33.854 C -9.286 33.854 -4.115 31.943 0 28.122 C 4.115 24.303 6.171 19.631 6.171 14.105 C 6.171 8.58 4.115 3.879 0 0 M -49.173 112.244 L -22.839 112.244 C -17.567 112.244 -13.26 110.691 -9.921 107.586 C -6.582 104.481 -4.913 100.645 -4.913 96.075 C -4.913 91.506 -6.582 87.669 -9.921 84.563 C -13.26 81.459 -17.567 79.907 -22.839 79.907 L -49.173 79.907 Z M 36.222 59.862 L 39.612 61.095 C 41.77 62.121 44.363 63.895 47.394 66.412 C 50.425 68.928 53.455 71.83 56.485 75.118 C 59.517 78.406 62.137 82.797 64.346 88.293 C 66.554 93.79 67.658 99.567 67.658 105.63 C 67.658 121.554 60.468 135.27 46.084 146.774 C 31.701 158.279 12.08 164.033 -12.781 164.033 L -120.651 164.033 L -120.651 -56.945 L -6.463 -56.945 C 22.809 -56.945 83.441 -51.494 83.441 6.235 C 83.441 50.385 37.249 59.451 36.222 59.862" style="fill: rgb(255, 255, 255); fill-opacity: 1;"/>
      </g>
    </g>
    <g style="clip-path: url(#clippath0);">
      <g transform="translate(317.45 236.9043)">
        <path d="M 0 0 C -4.115 -3.879 -9.286 -5.817 -15.517 -5.817 L -48.966 -5.817 L -48.966 33.855 L -15.517 33.855 C -9.286 33.855 -4.115 31.945 0 28.124 C 4.115 24.305 6.172 19.632 6.172 14.106 C 6.172 8.581 4.115 3.879 0 0 M -48.966 112.255 L -22.834 112.255 C -17.559 112.255 -13.25 110.701 -9.909 107.594 C -6.568 104.487 -4.898 100.648 -4.898 96.076 C -4.898 91.505 -6.568 87.665 -9.909 84.559 C -13.25 81.451 -17.559 79.898 -22.834 79.898 L -48.966 79.898 Z M 36.221 59.862 L 39.611 61.097 C 41.769 62.122 44.362 63.896 47.393 66.413 C 50.424 68.93 53.454 71.831 56.484 75.118 C 59.516 78.406 62.136 82.799 64.345 88.294 C 66.553 93.791 67.657 99.568 67.657 105.631 C 67.657 121.556 60.467 135.27 46.084 146.774 C 31.7 158.281 12.079 164.035 -12.782 164.035 L -120.443 164.035 L -120.443 -56.944 L -6.465 -56.944 C 22.808 -56.944 83.439 -51.493 83.439 6.236 C 83.439 50.387 37.248 59.452 36.221 59.862" style="fill: rgb(255, 255, 255); fill-opacity: 1;"/>
      </g>
    </g>
    <g style="clip-path: url(#clippath0);">
      <g transform="translate(527.0682 478.2002)">
        <path d="M 0 0 L -106.815 0 L -106.815 34.673 L -19.595 34.673 L -19.595 85.218 L -106.815 85.218 L -106.815 113.571 L 0.264 113.571 L 0.264 167.354 L -178.294 167.354 L -178.294 -53.626 L 0 -53.626 Z" style="fill: rgb(255, 255, 255); fill-opacity: 1;"/>
      </g>
    </g>
    <g style="clip-path: url(#clippath0);">
      <g transform="translate(709.803 645.5532)">
        <path d="M 0 0 L 0 -53.781 L 58.403 -53.781 L 58.403 -220.979 L 129.444 -220.979 L 129.444 -53.781 L 187.847 -53.781 L 187.847 0 Z" style="fill: rgb(255, 255, 255); fill-opacity: 1;"/>
      </g>
    </g>
    <g style="clip-path: url(#clippath0);">
      <g transform="translate(629.0286 481.7451)">
        <path d="M 0 0 C -3.905 -3.391 -9.322 -5.085 -16.258 -5.085 C -23.191 -5.085 -30.41 -3.185 -37.908 0.616 C -45.407 4.417 -50.417 7.475 -52.934 9.784 C -54.36 11.095 -55.593 12.249 -56.673 13.278 L -98.829 -26.763 L -96.158 -29.433 C -93.59 -32.104 -89.634 -35.289 -84.292 -38.987 C -78.949 -42.686 -72.761 -46.384 -65.723 -50.082 C -58.686 -53.781 -49.902 -56.939 -39.372 -59.561 C -28.843 -62.179 -17.978 -63.489 -6.781 -63.489 C 21.164 -63.489 43.406 -56.246 59.945 -41.761 C 76.485 -27.275 84.755 -9.811 84.755 10.633 C 84.755 22.446 82.367 32.823 77.59 41.761 C 72.813 50.698 66.854 57.427 59.714 61.948 C 52.574 66.469 44.843 70.525 36.521 74.122 C 28.934 77.401 21.841 79.88 15.235 81.578 C 14.597 81.742 13.959 81.908 13.33 82.057 C 6.19 83.752 0.258 85.909 -4.469 88.529 C -9.194 91.149 -11.558 94.154 -11.558 97.545 C -11.558 101.653 -9.913 105.044 -6.626 107.716 C -3.338 110.387 1.335 111.722 7.397 111.722 C 21.827 111.722 30.654 105.245 35.203 100.544 L 77.507 140.726 L 76.741 141.617 C 74.893 143.98 71.708 146.677 67.188 149.708 C 62.668 152.738 57.403 155.794 51.394 158.876 C 45.383 161.958 37.574 164.604 27.97 166.812 C 18.364 169.021 8.321 170.126 -2.157 170.126 C -28.663 170.126 -50.005 163.113 -66.185 149.09 C -82.365 135.067 -90.457 118.604 -90.457 99.702 C -90.457 89.634 -88.657 80.594 -85.063 72.581 C -81.467 64.567 -76.896 58.197 -71.348 53.473 C -65.801 48.747 -59.611 44.587 -52.778 40.99 C -47.042 37.971 -41.268 35.471 -35.458 33.429 C -34.349 33.039 -33.24 32.637 -32.129 32.283 C -25.195 30.075 -18.928 28.021 -13.329 26.12 C -7.731 24.22 -3.132 22.19 0.462 20.033 C 4.058 17.875 5.856 15.308 5.856 12.328 C 5.856 7.499 3.904 3.39 0 0" style="fill: rgb(255, 255, 255); fill-opacity: 1;"/>
      </g>
    </g>
    <g style="clip-path: url(#clippath0);">
      <g transform="translate(527.3304 269.623)">
        <path d="M 0 0 C 0 -14.587 -11.769 -26.441 -26.356 -26.55 C -41.095 -26.658 -53.103 -14.739 -53.103 0 L -53.103 131.238 L -124.629 131.238 L -124.629 3.335 C -124.629 -49.411 -81.871 -92.17 -29.125 -92.17 L -24.646 -92.17 C 28.101 -92.17 70.86 -49.411 70.86 3.335 L 70.86 131.238 L 0 131.238 Z" style="fill: rgb(255, 255, 255); fill-opacity: 1;"/>
      </g>
    </g>
    <g style="clip-path: url(#clippath0);">
      <g transform="translate(720.3577 325.7061)">
        <path d="M 0 0 L -46.84 75.155 L -118.453 75.155 L -35.739 -66.926 L -35.739 -145.824 L 35.739 -145.824 L 35.739 -66.926 L 118.453 75.155 L 46.84 75.155 Z" style="fill: rgb(255, 255, 255); fill-opacity: 1;"/>
      </g>
    </g>
    <g style="clip-path: url(#clippath0);">
      <g transform="translate(831.3773 210.0918)">
        <path d="M 0 0 C 0 -4.776 -3.872 -8.647 -8.649 -8.647 C -13.426 -8.647 -17.297 -4.776 -17.297 0 C -17.297 4.776 -13.426 8.648 -8.649 8.648 C -3.872 8.648 0 4.776 0 0" style="fill: rgb(29, 37, 44); fill-opacity: 1;"/>
      </g>
    </g>
    <g style="clip-path: url(#clippath0);">
      <g transform="translate(849.7991 331.8105)">
        <path d="M 0 0 C 1.703 0 2.555 0.692 2.555 2.076 L 2.555 2.129 C 2.555 3.673 1.649 4.204 0 4.204 L -2.128 4.204 L -2.128 0 Z M -3.991 5.748 L 0 5.748 C 2.66 5.748 4.417 4.577 4.417 2.182 L 4.417 2.129 C 4.417 0.267 3.246 -0.744 1.543 -1.064 L 5.109 -6.492 L 3.14 -6.492 L -0.266 -1.33 L -2.128 -1.33 L -2.128 -6.492 L -3.991 -6.492 Z M 10.218 -0.586 C 10.218 5.375 5.854 9.739 -0.054 9.739 C -5.907 9.739 -10.271 5.322 -10.271 -0.639 C -10.271 -6.652 -5.748 -10.909 -0.054 -10.909 C 5.747 -10.909 10.218 -6.599 10.218 -0.586 M -11.867 -0.639 C -11.867 5.907 -6.652 11.176 -0.054 11.176 C 6.651 11.176 11.761 5.961 11.761 -0.586 C 11.761 -7.237 6.546 -12.346 -0.054 -12.346 C -6.6 -12.346 -11.867 -7.29 -11.867 -0.639" style="fill: rgb(255, 255, 255); fill-opacity: 1;"/>
      </g>
    </g>
  </g>
</svg>